<?xml version="1.0"?>

<svg xmlns="http://www.w3.org/2000/svg" id="svg_Piece_37631_1591_" viewBox="-14 -14 296.9324 402.65594" width="600" height="600">
<polygon points="0.0000,252.0000 84.0000,140.0000 182.0000,196.0000 196.0000,252.0000 " style="fill:#feecd6;stroke:#16160e;stroke-width:0.7071067"></polygon>
<circle r="1" cx="85.4172" cy="146.8479" fill="#648131"></circle><circle r="1" cx="176.4259" cy="200.2227" fill="#648131"></circle><circle r="1" cx="190.4881" cy="247.6964" fill="#648131"></circle><circle r="1" cx="6.2547" cy="248.8726" fill="#648131"></circle>
<polygon points="0.0000,252.0000 6.7910,340.2830 146.0064,360.6559 115.4469,252.0000 " style="fill:#feecd6;stroke:#16160e;stroke-width:0.7071067"></polygon>
<circle r="1" cx="11.9023" cy="335.5105" fill="#648131"></circle><circle r="1" cx="140.7535" cy="356.0398" fill="#648131"></circle><circle r="1" cx="111.2243" cy="257.5742" fill="#648131"></circle><circle r="1" cx="5.1309" cy="256.7514" fill="#648131"></circle>
<polygon points="127.1413,82.9838 172.1098,105.9148 191.1693,111.2753 241.4984,115.1467 188.1913,48.7362 " style="fill:#feecd6;stroke:#16160e;stroke-width:0.7071067"></polygon>
<circle r="1" cx="174.6573" cy="99.4023" fill="#648131"></circle><circle r="1" cx="192.3901" cy="104.3896" fill="#648131"></circle><circle r="1" cx="235.3138" cy="111.8829" fill="#648131"></circle><circle r="1" cx="186.8596" cy="55.6013" fill="#648131"></circle><circle r="1" cx="134.1329" cy="82.8451" fill="#648131"></circle>
<polygon points="171.5811,157.7973 191.1693,111.2753 161.0336,102.7996 152.5579,132.9353 113.9465,154.5954 " style="fill:#feecd6;stroke:#16160e;stroke-width:0.7071067"></polygon>
<circle r="1" cx="184.8696" cy="114.3110" fill="#648131"></circle><circle r="1" cx="164.4549" cy="108.8985" fill="#648131"></circle><circle r="1" cx="158.0527" cy="137.2607" fill="#648131"></circle><circle r="1" cx="120.7587" cy="153.0157" fill="#648131"></circle><circle r="1" cx="167.8761" cy="151.8665" fill="#648131"></circle>
<polygon points="171.5811,157.7973 140.3243,156.0608 157.6892,182.1081 182.0000,196.0000 213.2568,197.7365 216.7297,248.0946 254.9324,237.6757 239.3041,180.3716 195.8919,171.6892 " style="fill:#feecd6;stroke:#16160e;stroke-width:0.7071067"></polygon>
<circle r="1" cx="146.3960" cy="159.5303" fill="#648131"></circle><circle r="1" cx="162.4609" cy="176.9960" fill="#648131"></circle><circle r="1" cx="183.9817" cy="189.2937" fill="#648131"></circle><circle r="1" cx="218.1684" cy="192.7588" fill="#648131"></circle><circle r="1" cx="220.7806" cy="242.3944" fill="#648131"></circle><circle r="1" cx="248.8608" cy="234.2062" fill="#648131"></circle><circle r="1" cx="234.5324" cy="185.4837" fill="#648131"></circle><circle r="1" cx="193.4398" cy="178.2382" fill="#648131"></circle><circle r="1" cx="169.5994" cy="164.5036" fill="#648131"></circle>

<circle r="5" cx="280" cy="0" fill="#f3a7a5"></circle>~%
</svg>
